<svg width="25" height="25" viewBox="0 0 25 25" fill="none" xmlns="http://www.w3.org/2000/svg">
<path d="M10.4096 1C8.54857 1 6.72932 1.55183 5.18191 2.5857C3.63451 3.61958 2.42846 5.08906 1.71627 6.80833C1.00408 8.5276 0.817735 10.4194 1.18081 12.2446C1.54388 14.0698 2.44006 15.7463 3.75601 17.0622C5.07197 18.378 6.7486 19.2742 8.57389 19.6372C10.3992 20.0002 12.2911 19.8139 14.0105 19.1018C15.7299 18.3896 17.1995 17.1837 18.2334 15.6364C19.2674 14.0891 19.8192 12.2699 19.8192 10.409C19.8191 7.91362 18.8276 5.5205 17.063 3.75601C15.2984 1.99151 12.9051 1.00016 10.4096 1V1Z" stroke="#F9F9F9" stroke-miterlimit="10"/>
<path d="M17.4282 17.4287L23.9998 23.9999" stroke="#F9F9F9" stroke-miterlimit="10" stroke-linecap="round"/>
</svg>
